<?xml version="1.0" standalone="no"?>
<!DOCTYPE svg PUBLIC "-//W3C//DTD SVG 20010904//EN"
 "http://www.w3.org/TR/2001/REC-SVG-20010904/DTD/svg10.dtd">
<svg version="1.0" xmlns="http://www.w3.org/2000/svg"
 width="600.000000pt" height="600.000000pt" viewBox="0 0 600.000000 600.000000"
 preserveAspectRatio="xMidYMid meet">
<metadata>
Created by potrace 1.14, written by Peter Selinger 2001-2017
</metadata>
<g transform="translate(0.000000,600.000000) scale(0.100000,-0.100000)"
fill="#000000" stroke="none">
<path d="M0 3000 l0 -3000 718 0 717 0 1 268 c1 147 3 399 5 560 l4 293 25 20
c32 24 195 108 282 144 37 15 66 31 64 34 -2 3 8 6 22 7 35 1 294 128 284 139
-4 5 -2 5 5 1 7 -4 52 7 100 24 48 17 144 45 213 61 69 16 141 38 160 48 19
10 40 16 46 14 11 -4 29 13 36 32 1 5 10 11 18 12 8 1 25 14 37 28 12 14 25
25 28 25 30 -1 35 4 40 38 11 66 15 77 36 102 l20 25 -4 -55 c-2 -30 -2 -45 0
-32 7 35 23 26 23 -14 0 -30 -3 -36 -18 -32 -12 4 -18 -1 -18 -14 0 -14 5 -18
21 -14 11 3 23 6 26 6 14 0 17 30 7 67 -13 49 -31 90 -80 186 -23 45 -38 86
-35 98 3 12 0 19 -9 19 -30 0 -10 17 79 69 50 30 124 77 162 104 77 55 295
236 295 244 0 4 -8 -1 -18 -9 -70 -60 -181 -148 -187 -148 -4 0 -38 -20 -76
-45 -77 -52 -203 -113 -299 -145 -79 -27 -170 -22 -234 11 -59 31 -267 171
-364 245 -45 35 -86 64 -91 64 -14 0 -106 103 -133 150 -38 65 -66 162 -143
498 -5 22 -7 22 -194 22 l-189 0 -7 123 c-8 135 -4 512 6 521 3 3 150 9 327
13 l321 6 7 42 c3 23 4 58 3 76 -4 44 10 181 20 198 4 7 11 -48 15 -121 3 -73
9 -148 12 -166 l6 -32 280 0 280 1 -6 42 c-16 96 -24 307 -16 412 9 124 38
292 50 300 9 6 130 -91 130 -104 0 -4 21 -5 48 0 26 4 63 6 82 4 19 -1 45 4
58 13 18 12 33 13 70 6 46 -9 48 -10 84 -84 68 -137 83 -211 83 -412 l0 -178
62 0 62 0 15 51 c9 28 18 67 21 87 10 62 16 85 20 80 4 -4 26 -103 39 -179 l6
-37 219 -7 219 -7 6 -46 c3 -24 6 -80 6 -124 0 -66 4 -84 25 -116 42 -64 56
-167 34 -243 -7 -20 -31 -61 -55 -91 -24 -29 -71 -88 -104 -130 -71 -91 -108
-121 -181 -148 -45 -17 -48 -19 -18 -15 l36 5 -28 -57 -28 -58 14 -172 c15
-181 76 -489 115 -587 11 -27 20 -65 21 -85 1 -35 1 -35 9 -8 5 15 5 41 0 57
-8 29 -8 29 15 14 13 -9 29 -13 35 -9 6 4 10 3 9 -2 -4 -22 2 -64 8 -60 5 3 8
-9 9 -26 2 -56 34 -149 50 -143 7 3 16 0 20 -6 5 -7 2 -8 -6 -3 -7 4 -11 4 -8
-1 2 -5 15 -33 29 -61 24 -54 46 -74 29 -27 -6 14 -10 28 -10 31 0 8 104 -8
116 -18 6 -5 13 -7 16 -4 3 3 13 -5 24 -17 15 -18 16 -20 2 -9 -10 7 -18 9
-18 4 0 -13 44 -53 58 -53 7 0 44 -16 83 -35 38 -20 75 -33 81 -29 7 5 8 2 3
-6 -6 -10 -4 -12 9 -7 9 4 15 3 12 -2 -5 -8 199 -107 207 -100 3 2 13 -5 23
-17 25 -28 260 -137 275 -128 8 5 9 3 4 -6 -6 -10 -4 -12 9 -7 9 4 15 3 12 -1
-7 -12 63 -44 77 -36 7 4 9 4 5 -1 -10 -11 50 -47 64 -39 7 5 8 2 3 -6 -6 -10
-4 -12 11 -6 10 4 15 4 11 0 -10 -10 31 -37 43 -29 6 4 9 1 8 -7 -2 -7 5 -12
14 -12 10 1 15 -2 13 -7 -7 -11 30 -30 40 -21 5 4 5 2 2 -4 -8 -14 18 -38 31
-30 6 3 15 -1 22 -9 7 -8 9 -15 4 -15 -4 0 9 -18 31 -39 21 -22 42 -39 48 -38
15 3 19 -28 30 -223 17 -337 14 -469 -16 -600 -29 -125 -32 -143 -17 -120 6
10 10 11 10 3 0 -10 79 -13 360 -13 l360 0 0 3000 0 3000 -3000 0 -3000 0 0
-3000z m1770 1649 c-18 -42 -25 -28 -9 18 7 21 14 32 17 25 2 -7 -2 -26 -8
-43z m1730 -24 c23 -52 35 -104 21 -90 -10 10 -71 152 -71 164 1 12 33 -35 50
-74z m-1649 12 c-13 -13 -15 11 -4 40 7 16 8 15 11 -6 2 -13 -1 -28 -7 -34z
m1749 -4 c-1 -11 -40 37 -40 49 0 6 9 -1 20 -15 11 -14 20 -29 20 -34z m-1203
-75 c-2 -13 -4 -5 -4 17 -1 22 1 32 4 23 2 -10 2 -28 0 -40z m1538 -2856 c-3
-3 -11 0 -18 7 -9 10 -8 11 6 5 10 -3 15 -9 12 -12z m1402 -1384 c-3 -8 -6 -5
-6 6 -1 11 2 17 5 13 3 -3 4 -12 1 -19z m-10 -90 c-3 -7 -5 -2 -5 12 0 14 2
19 5 13 2 -7 2 -19 0 -25z m-3910 -70 c-2 -18 -4 -6 -4 27 0 33 2 48 4 33 2
-15 2 -42 0 -60z m3900 10 c-3 -8 -6 -5 -6 6 -1 11 2 17 5 13 3 -3 4 -12 1
-19z m-10 -50 c-3 -8 -6 -5 -6 6 -1 11 2 17 5 13 3 -3 4 -12 1 -19z"/>
<path d="M3794 3129 c-10 -12 -32 -30 -49 -40 -16 -11 -24 -19 -17 -19 12 0
103 79 91 80 -3 0 -14 -10 -25 -21z"/>
<path d="M3592 3100 c-24 -31 -27 -40 -14 -40 5 0 16 16 25 35 20 43 18 44
-11 5z"/>
<path d="M3553 3028 c-11 -13 -24 -34 -27 -48 -6 -23 -6 -23 5 -5 6 11 23 32
37 48 14 15 21 27 16 27 -6 0 -20 -10 -31 -22z"/>
<path d="M2287 2893 c-28 -54 -34 -79 -17 -68 13 8 51 96 47 109 -2 6 -16 -12
-30 -41z"/>
<path d="M3499 2823 l-24 -28 28 24 c25 23 32 31 24 31 -2 0 -14 -12 -28 -27z"/>
<path d="M2625 2568 c-37 -12 -276 -16 -330 -5 -35 7 -37 6 -20 -5 30 -20 315
-16 375 4 25 9 36 16 25 16 -11 0 -33 -4 -50 -10z"/>
<path d="M3605 1800 c-60 -38 -194 -108 -298 -156 -103 -48 -186 -89 -184 -90
8 -8 349 152 443 208 86 51 170 109 154 107 -3 -1 -54 -32 -115 -69z"/>
<path d="M2912 1700 c0 -14 2 -19 5 -12 2 6 2 18 0 25 -3 6 -5 1 -5 -13z"/>
<path d="M2870 1705 c0 -6 21 -32 46 -60 l46 -50 -38 50 c-52 68 -54 71 -54
60z"/>
<path d="M2586 1573 c-24 -21 -45 -44 -45 -51 -1 -7 9 -3 22 10 12 13 35 36
52 51 44 40 23 33 -29 -10z"/>
<path d="M2990 1584 c0 -13 58 -69 65 -63 2 3 -11 21 -30 39 -19 19 -35 29
-35 24z"/>
<path d="M2960 1540 c8 -5 24 -9 35 -9 l20 0 -20 9 c-11 5 -27 9 -35 9 -13 1
-13 0 0 -9z"/>
<path d="M2916 1500 c-9 -17 -29 -38 -44 -47 -34 -22 -42 -33 -42 -61 0 -12
-27 -62 -59 -110 -62 -92 -141 -230 -141 -247 0 -5 22 28 48 75 26 47 72 121
102 165 l55 80 3 -109 c1 -61 7 -115 12 -121 6 -7 0 -31 -16 -65 -73 -156
-147 -369 -204 -585 -43 -162 -100 -422 -100 -455 0 -20 6 -20 311 -20 l311 0
-6 88 c-14 178 -28 322 -52 516 -13 110 -24 201 -24 202 0 2 24 5 53 7 l52 3
-52 2 -52 2 -6 48 c-4 26 -12 81 -19 122 -11 75 -11 75 16 110 15 19 55 78 88
130 57 88 61 98 55 137 -6 41 -43 91 -83 112 -41 21 -130 34 -162 23 -29 -11
-31 -10 -25 8 9 29 2 25 -19 -10z"/>
<path d="M3850 1470 c-6 -11 -8 -20 -6 -20 3 0 10 9 16 20 6 11 8 20 6 20 -3
0 -10 -9 -16 -20z"/>
<path d="M2554 1165 c0 -159 2 -223 3 -142 2 82 2 212 0 290 -1 78 -3 12 -3
-148z"/>
<path d="M3800 1390 c-6 -11 -8 -20 -6 -20 3 0 10 9 16 20 6 11 8 20 6 20 -3
0 -10 -9 -16 -20z"/>
<path d="M3770 1340 c-6 -11 -8 -20 -6 -20 3 0 10 9 16 20 6 11 8 20 6 20 -3
0 -10 -9 -16 -20z"/>
<path d="M3240 1331 c0 -6 4 -13 10 -16 6 -3 7 1 4 9 -7 18 -14 21 -14 7z"/>
<path d="M3740 1290 c-6 -11 -8 -20 -6 -20 3 0 10 9 16 20 6 11 8 20 6 20 -3
0 -10 -9 -16 -20z"/>
<path d="M3260 1297 c0 -11 130 -267 135 -267 5 0 -122 259 -131 269 -2 2 -4
1 -4 -2z"/>
<path d="M3710 1240 c-6 -11 -8 -20 -6 -20 3 0 10 9 16 20 6 11 8 20 6 20 -3
0 -10 -9 -16 -20z"/>
<path d="M2612 995 c-17 -37 -14 -45 4 -12 9 16 14 31 11 33 -2 2 -9 -7 -15
-21z"/>
<path d="M3415 990 c9 -16 18 -30 21 -30 2 0 -2 14 -11 30 -9 17 -18 30 -21
30 -2 0 2 -13 11 -30z"/>
<path d="M1532 940 c0 -14 2 -19 5 -12 2 6 2 18 0 25 -3 6 -5 1 -5 -13z"/>
<path d="M1542 890 c0 -14 2 -19 5 -12 2 6 2 18 0 25 -3 6 -5 1 -5 -13z"/>
<path d="M1552 840 c0 -14 2 -19 5 -12 2 6 2 18 0 25 -3 6 -5 1 -5 -13z"/>
<path d="M4787 799 c-32 -22 -57 -42 -57 -45 0 -5 90 56 115 78 25 22 -8 4
-58 -33z"/>
<path d="M1562 790 c0 -14 2 -19 5 -12 2 6 2 18 0 25 -3 6 -5 1 -5 -13z"/>
<path d="M3268 803 c12 -2 30 -2 40 0 9 3 -1 5 -23 4 -22 0 -30 -2 -17 -4z"/>
<path d="M1572 740 c0 -14 2 -19 5 -12 2 6 2 18 0 25 -3 6 -5 1 -5 -13z"/>
<path d="M4600 651 c-63 -54 -140 -125 -170 -157 -32 -34 -17 -22 39 30 51 48
129 117 172 153 71 60 85 73 76 73 -1 0 -54 -45 -117 -99z"/>
<path d="M1582 695 c0 -11 4 -31 8 -45 6 -20 8 -21 8 -5 0 11 -4 31 -8 45 -6
20 -8 21 -8 5z"/>
<path d="M1601 612 c-1 -19 32 -148 36 -137 1 6 -6 42 -16 80 -11 39 -20 64
-20 57z"/>
<path d="M1510 545 c0 -5 5 -17 10 -25 5 -8 10 -10 10 -5 0 6 -5 17 -10 25 -5
8 -10 11 -10 5z"/>
<path d="M1530 495 c0 -5 5 -17 10 -25 5 -8 10 -10 10 -5 0 6 -5 17 -10 25 -5
8 -10 11 -10 5z"/>
<path d="M1647 430 c6 -38 31 -111 32 -95 0 6 -8 37 -19 70 -11 33 -17 44 -13
25z"/>
<path d="M1551 448 c-1 -11 51 -129 56 -125 2 2 -10 33 -26 68 -16 35 -30 61
-30 57z"/>
<path d="M4143 380 c0 -41 2 -58 4 -37 2 20 2 54 0 75 -2 20 -4 3 -4 -38z"/>
<path d="M1681 314 c-1 -15 40 -136 45 -131 2 2 -7 35 -20 73 -14 38 -25 64
-25 58z"/>
<path d="M4435 290 c-9 -16 -13 -30 -11 -30 3 0 12 14 21 30 9 17 13 30 11 30
-3 0 -12 -13 -21 -30z"/>
<path d="M1610 306 c0 -12 130 -262 146 -283 8 -10 -20 50 -62 132 -82 159
-84 163 -84 151z"/>
<path d="M4157 175 c3 -71 10 -141 14 -155 9 -27 1 114 -11 220 -6 42 -6 19
-3 -65z"/>
<path d="M4385 200 c-9 -16 -13 -30 -11 -30 3 0 12 14 21 30 9 17 13 30 11 30
-3 0 -12 -13 -21 -30z"/>
<path d="M4345 130 c-9 -16 -13 -30 -11 -30 3 0 12 14 21 30 9 17 13 30 11 30
-3 0 -12 -13 -21 -30z"/>
<path d="M4309 68 c-7 -13 -19 -34 -27 -48 -14 -24 -13 -24 3 -5 20 24 48 75
41 75 -3 0 -11 -10 -17 -22z"/>
</g>
</svg>
